<?xml version="1.0" encoding="UTF-8" standalone="no"?>
<svg
   xmlns:dc="http://purl.org/dc/elements/1.1/"
   xmlns:cc="http://creativecommons.org/ns#"
   xmlns:rdf="http://www.w3.org/1999/02/22-rdf-syntax-ns#"
   xmlns:svg="http://www.w3.org/2000/svg"
   xmlns="http://www.w3.org/2000/svg"
   id="svg1795"
   height="46"
   width="25"
   version="1.1">
  <metadata
     id="metadata1801">
    <rdf:RDF>
      <cc:Work
         rdf:about="">
        <dc:format>image/svg+xml</dc:format>
        <dc:type
           rdf:resource="http://purl.org/dc/dcmitype/StillImage" />
        <dc:title></dc:title>
      </cc:Work>
    </rdf:RDF>
  </metadata>
  <defs
     id="defs1799" />
  <g
     style="fill:#f4f6f8;stroke:#0f2d59;stroke-linecap:round;stroke-linejoin:round"
     id="g1762"
     transform="translate(-11,-1)">
    <path
       id="path1752"
       d="m 16.5,1.5 -5,6 v 39 h 24 v -39 l -5,-6 z" />
    <path
       id="path1754"
       d="m 14.5,9.5 v 24 h 18 v -24 z" />
    <path
       id="path1756"
       d="m 14.5,31.5 h 18 m -18,-4 h 18 m -18,-2 h 18 m -18,-10 h 18 m -18,4 h 18 m -18,2 h 18 m -18,-8 h 18" />
    <path
       id="path1758"
       d="m 30.5,43.5 v -7 m -2,7 v -7 m -2,7 v -7 m -2,7 v -7 m -2,7 v -7 m -2,7 v -7 m -2,7 v -7 m -2,7 v -7" />
    <path
       id="path1760"
       d="m 16.5,29.5 h 2 m -2,-6 h 2 m -2,-6 h 2 m -2,-6 h 2" />
  </g>
</svg>
