<?xml version="1.0" encoding="UTF-8" standalone="no"?>
<svg
   xmlns:dc="http://purl.org/dc/elements/1.1/"
   xmlns:cc="http://creativecommons.org/ns#"
   xmlns:rdf="http://www.w3.org/1999/02/22-rdf-syntax-ns#"
   xmlns:svg="http://www.w3.org/2000/svg"
   xmlns="http://www.w3.org/2000/svg"
   version="1.1"
   width="44.097645"
   height="46"
   id="svg4445">
  <metadata
     id="metadata4451">
    <rdf:RDF>
      <cc:Work
         rdf:about="">
        <dc:format>image/svg+xml</dc:format>
        <dc:type
           rdf:resource="http://purl.org/dc/dcmitype/StillImage" />
        <dc:title></dc:title>
      </cc:Work>
    </rdf:RDF>
  </metadata>
  <defs
     id="defs4449" />
  <g
     style="fill:#f4f6f8;stroke:#0f2d59;stroke-linecap:round;stroke-linejoin:round"
     transform="translate(-1.951177,-1)"
     id="g4352">
    <path
       d="m 7.75,36.5 c -1.25,0 -2,0.3 -2.5,1.5 l -2.5,6 C 1.9,46 3,46.5 4,46.5 h 40 c 1,0 2.1,-0.5 1.25,-2.5 l -2.5,-6 c -0.5,-1.2 -1.25,-1.5 -2.5,-1.5 z"
       id="path4338" />
    <path
       d="m 14.5,29.5 -1,3 c -0.5,1.5 0,2 1.5,2 h 18 c 1.5,0 2,-0.5 1.5,-2 l -1,-3 z"
       id="path4340" />
    <path
       d="m 8,38.5 -2,6 h 36 l -2,-6 z"
       id="path4342" />
    <path
       d="m 37.5,38.5 v 6 m -3,-6 v 6 m -3,-6 v 6 m -3,-6 v 3 m -3,-3 v 3 m -3,-3 v 3 m -3,-3 v 3 m -3,-3 v 3 m -3,-3 v 6 m -3,-6 v 6 M 7,41.5 h 34"
       id="path4344" />
    <rect
       x="19.5"
       y="28.5"
       width="9"
       height="4"
       id="rect4346" />
    <rect
       x="4.5"
       y="1.5"
       width="39"
       height="29"
       rx="2"
       ry="2"
       id="rect4348" />
    <rect
       x="7.5"
       y="4.5"
       width="33"
       height="22"
       rx="1"
       ry="1"
       id="rect4350" />
  </g>
</svg>
