<?xml version="1.0" encoding="UTF-8" standalone="no"?>
<svg
   xmlns:dc="http://purl.org/dc/elements/1.1/"
   xmlns:cc="http://creativecommons.org/ns#"
   xmlns:rdf="http://www.w3.org/1999/02/22-rdf-syntax-ns#"
   xmlns:svg="http://www.w3.org/2000/svg"
   xmlns="http://www.w3.org/2000/svg"
   id="svg1146"
   height="38.00005"
   width="32.00005"
   version="1.1">
  <metadata
     id="metadata1152">
    <rdf:RDF>
      <cc:Work
         rdf:about="">
        <dc:format>image/svg+xml</dc:format>
        <dc:type
           rdf:resource="http://purl.org/dc/dcmitype/StillImage" />
        <dc:title></dc:title>
      </cc:Work>
    </rdf:RDF>
  </metadata>
  <defs
     id="defs1150" />
  <g
     style="fill:#f4f6f8;stroke:#0f2d59;stroke-linecap:round;stroke-linejoin:round"
     id="g1095"
     transform="translate(-8,-4.99995)">
    <path
       id="path1089"
       d="m 31.5,5.5 h -22 a 1,1 0 0 0 -1,1 v 35 a 1,1 0 0 0 1,1 h 29 a 1,1 0 0 0 1,-1 v -28" />
    <path
       id="path1091"
       d="m 13,26.5 h 22 m -22,9 h 17 m -17,-3 h 22 m -22,-3 h 22 m -22,-6 h 22 m -22,-3 h 22 m -22,-3 h 22" />
    <path
       id="path1093"
       d="m 31.5,5.5 v 7 a 1,1 0 0 0 1,1 h 7 z" />
  </g>
</svg>
