<?xml version="1.0" encoding="UTF-8" standalone="no"?>
<svg
   xmlns:dc="http://purl.org/dc/elements/1.1/"
   xmlns:cc="http://creativecommons.org/ns#"
   xmlns:rdf="http://www.w3.org/1999/02/22-rdf-syntax-ns#"
   xmlns:svg="http://www.w3.org/2000/svg"
   xmlns="http://www.w3.org/2000/svg"
   id="svg822"
   height="34"
   width="42"
   version="1.1">
  <metadata
     id="metadata828">
    <rdf:RDF>
      <cc:Work
         rdf:about="">
        <dc:format>image/svg+xml</dc:format>
        <dc:type
           rdf:resource="http://purl.org/dc/dcmitype/StillImage" />
        <dc:title></dc:title>
      </cc:Work>
    </rdf:RDF>
  </metadata>
  <defs
     id="defs826" />
  <g
     style="fill:#f4f6f8;stroke:#0f2d59;stroke-linecap:round;stroke-linejoin:round"
     id="g763"
     transform="translate(-3,-8)">
    <path
       id="path759"
       d="M 7,8.5 C 6,8.5 5.5,9 5.5,10 v 30.5 h 37 V 13 C 42.5,12 42,11.5 41,11.5 H 21.5 L 19,9 C 18.5,8.5 18,8.5 17.5,8.5 Z" />
    <path
       id="path761"
       d="m 43.5,40 c 0,1 -0.5,1.5 -1.5,1.5 H 6 C 5,41.5 4.5,41 4.5,40 L 3.5,17 C 3.5,16 4,15.5 5,15.5 h 38 c 1,0 1.5,0.5 1.5,1.5 z" />
  </g>
</svg>
