<?xml version="1.0" encoding="UTF-8" standalone="no"?>
<svg
   xmlns:dc="http://purl.org/dc/elements/1.1/"
   xmlns:cc="http://creativecommons.org/ns#"
   xmlns:rdf="http://www.w3.org/1999/02/22-rdf-syntax-ns#"
   xmlns:svg="http://www.w3.org/2000/svg"
   xmlns="http://www.w3.org/2000/svg"
   id="svg1471"
   height="46"
   width="45"
   version="1.1">
  <metadata
     id="metadata1477">
    <rdf:RDF>
      <cc:Work
         rdf:about="">
        <dc:format>image/svg+xml</dc:format>
        <dc:type
           rdf:resource="http://purl.org/dc/dcmitype/StillImage" />
        <dc:title></dc:title>
      </cc:Work>
    </rdf:RDF>
  </metadata>
  <defs
     id="defs1475" />
  <g
     style="fill:#f4f6f8;stroke:#0f2d59;stroke-linecap:round;stroke-linejoin:round"
     id="g1426"
     transform="translate(-1,-1)">
    <path
       id="path1422"
       d="M 12.3,1.5 11.7,4.6 9,5.7 6.4,3.9 3.9,6.4 5.7,9 4.6,11.7 1.5,12.3 v 3.5 l 3.1,0.5 1.1,2.7 -1.8,2.6 2.5,2.5 2.6,-1.8 2.7,1.1 0.6,3.1 h 3.5 l 0.5,-3.1 2.7,-1.1 2.6,1.8 2.5,-2.5 -1.8,-2.6 1.1,-2.7 3.1,-0.5 V 12.3 L 23.4,11.7 22.3,9 24.1,6.4 21.6,3.9 19,5.7 16.3,4.6 15.8,1.5 Z m 1.7,8 c 2.5,0 4.5,2 4.5,4.5 0,2.5 -2,4.5 -4.5,4.5 -2.5,0 -4.5,-2 -4.5,-4.5 0,-2.5 2,-4.5 4.5,-4.5 z" />
    <path
       id="path1424"
       d="m 25,10.5 -0.8,4.4 -3.9,1.6 -3.8,-2.5 -3.5,3.5 2.5,3.8 -1.6,3.9 -4.4,0.8 v 5 l 4.4,0.8 1.6,3.9 -2.5,3.8 3.5,3.5 3.8,-2.5 3.9,1.6 0.8,4.4 h 5 l 0.8,-4.4 3.9,-1.6 3.8,2.5 3.5,-3.5 -2.5,-3.8 1.6,-3.9 4.4,-0.8 V 26 L 41.1,25.2 39.5,21.3 42,17.5 38.5,14 34.7,16.5 30.8,14.9 30,10.5 Z m 2.5,12 c 3.3,0 6,2.7 6,6 0,3.3 -2.7,6 -6,6 -3.3,0 -6,-2.7 -6,-6 0,-3.3 2.7,-6 6,-6 z" />
  </g>
</svg>
