<?xml version="1.0" encoding="UTF-8" standalone="no"?>
<svg
   xmlns:dc="http://purl.org/dc/elements/1.1/"
   xmlns:cc="http://creativecommons.org/ns#"
   xmlns:rdf="http://www.w3.org/1999/02/22-rdf-syntax-ns#"
   xmlns:svg="http://www.w3.org/2000/svg"
   xmlns="http://www.w3.org/2000/svg"
   version="1.1"
   width="39"
   height="46.007065"
   id="svg125">
  <metadata
     id="metadata131">
    <rdf:RDF>
      <cc:Work
         rdf:about="">
        <dc:format>image/svg+xml</dc:format>
        <dc:type
           rdf:resource="http://purl.org/dc/dcmitype/StillImage" />
        <dc:title></dc:title>
      </cc:Work>
    </rdf:RDF>
  </metadata>
  <defs
     id="defs129" />
  <g
     style="fill:#f4f6f8;stroke:#0f2d59;stroke-linecap:round;stroke-linejoin:round"
     transform="translate(-5,-1)"
     id="g16">
    <path
       d="m 20.5,22.5 -3,15 h 14 l -3,-15 z"
       id="path2" />
    <path
       d="M 18.5,27.5 C 10,30 5.5,39 5.5,44.5 c 0,1.5 6.5,2 8,2 h 11 11 c 1.5,0 8,-0.5 8,-2 0,-5.5 -4.5,-14.5 -13,-17 l -5,1 -1,8 -1,-8 z"
       id="path4" />
    <path
       d="m 24.5,3.5 c -5.5,0 -10,5 -10,11 0,6 4.5,11 10,11 5.5,0 10,-5 10,-11 0,-6 -4.5,-11 -10,-11 z"
       id="path6" />
    <path
       d="m 24.5,1.5 c -4,0 -6,1.5 -7,4 -3,1 -4,5 -3,9 2,-2 3,-4 4,-7 11,8 10,-3 16,7 1,-8 -4,-13 -10,-13 z"
       id="path8" />
    <path
       d="m 18.5,25.5 c 1,1 2,2 5,3 -2,1 -2,3 -2,4 -2,-1 -4,-4 -4,-6 z"
       id="path10" />
    <path
       d="m 30.5,25.5 c -1,1 -2,2 -5,3 2,1 2,3 2,4 2,-1 4,-4 4,-6 z"
       id="path12" />
    <path
       d="m 14.5,38.5 -1,8 m 22,0 -1,-8"
       id="path14" />
  </g>
</svg>
