<?xml version="1.0" encoding="UTF-8" standalone="no"?>
<svg
   xmlns:dc="http://purl.org/dc/elements/1.1/"
   xmlns:cc="http://creativecommons.org/ns#"
   xmlns:rdf="http://www.w3.org/1999/02/22-rdf-syntax-ns#"
   xmlns:svg="http://www.w3.org/2000/svg"
   xmlns="http://www.w3.org/2000/svg"
   xmlns:xlink="http://www.w3.org/1999/xlink"
   id="svg2122"
   height="39"
   width="46"
   version="1.1">
  <metadata
     id="metadata2128">
    <rdf:RDF>
      <cc:Work
         rdf:about="">
        <dc:format>image/svg+xml</dc:format>
        <dc:type
           rdf:resource="http://purl.org/dc/dcmitype/StillImage" />
        <dc:title></dc:title>
      </cc:Work>
    </rdf:RDF>
  </metadata>
  <defs
     id="defs2126" />
  <g
     style="fill:#f4f6f8;stroke:#0f2d59;stroke-linecap:round;stroke-linejoin:round"
     id="g2120"
     transform="translate(-1,-5)">
    <path
       id="path2091"
       d="m 22.5,27.5 v 10 h -8 v 2 h 15 v -2 h -5 v -10 z" />
    <path
       id="path2093"
       d="m 25.5,38.5 a 2,2 0 1 1 -4,0 2,2 0 1 1 4,0 z" />
    <path
       id="path2095"
       d="m 4.5,11.5 -3,4 v 28 h 16 v -28 l -3,-4 z" />
    <path
       id="path2097"
       d="m 3.5,17.5 v 15 h 12 v -15 z" />
    <path
       id="path2099"
       d="m 3.5,30.5 h 12 m -12,-3 h 12 m -12,-2 h 12 m -12,-3 h 12 m -12,-2 h 12" />
    <path
       id="path2101"
       d="m 13.5,40.5 v -5 m -2,5 v -5 m -2,5 v -5 m -2,5 v -5 m -2,5 v -5" />
    <use
       height="100%"
       width="100%"
       y="0"
       x="0"
       id="use2103"
       transform="translate(-7,-11)"
       xlink:href="#client" />
    <g
       id="client">
      <path
         id="path2105"
         d="m 27.5,35.5 v 4 c 0,0.625 0.375,1 1,1 h 17 c 0.625,0 1,-0.375 1,-1 v -4 l -3,-5 h -13 z" />
      <path
         id="path2107"
         d="m 29.5,36.5 v 4 h 15 v -4 z" />
      <path
         id="path2109"
         d="m 42.5,38.5 h -5" />
      <path
         id="path2111"
         d="m 32.5,30.5 -1,2 c -0.5,1 -0.5,2 1.5,2 h 8 c 2,0 2,-1 1.5,-2 l -1,-2 z" />
      <rect
         id="rect2113"
         height="4"
         width="5"
         y="28.5"
         x="34.5" />
      <rect
         id="rect2115"
         ry="1"
         rx="1"
         height="14"
         width="19"
         y="16.5"
         x="27.5" />
      <rect
         id="rect2117"
         height="10"
         width="15"
         y="18.5"
         x="29.5" />
    </g>
  </g>
</svg>
