<?xml version="1.0" encoding="UTF-8" standalone="no"?>
<svg
   xmlns:dc="http://purl.org/dc/elements/1.1/"
   xmlns:cc="http://creativecommons.org/ns#"
   xmlns:rdf="http://www.w3.org/1999/02/22-rdf-syntax-ns#"
   xmlns:svg="http://www.w3.org/2000/svg"
   xmlns="http://www.w3.org/2000/svg"
   id="svg125"
   height="41"
   width="36.000099"
   version="1.1">
  <metadata
     id="metadata131">
    <rdf:RDF>
      <cc:Work
         rdf:about="">
        <dc:format>image/svg+xml</dc:format>
        <dc:type
           rdf:resource="http://purl.org/dc/dcmitype/StillImage" />
        <dc:title></dc:title>
      </cc:Work>
    </rdf:RDF>
  </metadata>
  <defs
     id="defs129" />
  <g
     style="fill:#f4f6f8;stroke:#0f2d59;stroke-linecap:round;stroke-linejoin:round"
     id="g60"
     transform="translate(-5.99995,-4)">
    <path
       id="path52"
       d="m 6.5,29.5 v 10 a 17.5,5 0 0 0 17.5,5 17.5,5 0 0 0 17.5,-5 v -10" />
    <path
       id="path54"
       d="m 6.5,19.5 v 10 a 17.5,5 0 0 0 17.5,5 17.5,5 0 0 0 17.5,-5 v -10" />
    <path
       id="path56"
       d="m 6.5,9.5 v 10 a 17.5,5 0 0 0 17.5,5 17.5,5 0 0 0 17.5,-5 v -10" />
    <path
       id="path58"
       d="M 24,4.5 A 17.5,5 0 0 0 6.5,9.5 17.5,5 0 0 0 24,14.5 17.5,5 0 0 0 41.5,9.5 17.5,5 0 0 0 24,4.5 Z" />
  </g>
</svg>
